# xmcd
#
# Track frame offsets:
# 151
# 16372
# 31661
# 49972
# 62299
# 74710
# 90463
# 104388
# 118751
# 132116
# 146755
# 164130
# 178441
# 194956
#
# Disc length: 2803 seconds
#
#
# Revision: 0
# Processed by: cddbd v1.5.1PL2 Copyright (c) Steve Scherf et al.
# Submitted via: FreeRIP 2.943 
#
DISCID=d70af10e
DTITLE=Albert Hammond Greatest hits - Greatest hits
DYEAR=1976
DGENRE=Country
TTITLE0=The free electic band
TTITLE1=It never rains in Southern California
TTITLE2=99 miles from L.A.
TTITLE3=If you gotta break another heart
TTITLE4=The peacemaker
TTITLE5=Good old days
TTITLE6=Half a million miles from home
TTITLE7=Moonlight lady
TTITLE8=Everything I want to do
TTITLE9=Down by the river
TTITLE10=The air that I breathe
TTITLE11=New York City here I come
TTITLE12=I don't wanna die in an air disaster
TTITLE13=I'm a train
EXTD=
EXTT0=
EXTT1=
EXTT2=
EXTT3=
EXTT4=
EXTT5=
EXTT6=
EXTT7=
EXTT8=
EXTT9=
EXTT10=
EXTT11=
EXTT12=
EXTT13=
PLAYORDER=
